<svg class="bg-white border" xmlns="http://www.w3.org/2000/svg" data-name="Layer 1" width="564.05029" height="343.91531" viewBox="400 -10 600 343.91531" xmlns:xlink="http://www.w3.org/1999/xlink">
   <ellipse class="window-action" cx="427.85361" cy="9.37016" rx="9.1659" ry="9.37016" fill="#3f3d56"/>
    <ellipse class="window-action" cx="459.51761" cy="9.37016" rx="9.1659" ry="9.37016" fill="#3f3d56"/>
    <ellipse class="window-action" cx="491.18162" cy="9.37016" rx="9.1659" ry="9.37016" fill="#3f3d56"/>
    <path d="M1072.22038,133.77377h-22.49811a1.70408,1.70408,0,0,1,0-3.40733h22.49811a1.70408,1.70408,0,0,1,0,3.40733Z" transform="translate(-107.97485 -128.04234)" fill="#3f3d56"/>
    <path d="M1072.22038,140.16252h-22.49811a1.70408,1.70408,0,0,1,0-3.40733h22.49811a1.70408,1.70408,0,0,1,0,3.40733Z" transform="translate(-107.97485 -128.04234)" fill="#3f3d56"/>
    <path d="M1072.22038,146.55127h-22.49811a1.70408,1.70408,0,0,1,0-3.40733h22.49811a1.70408,1.70408,0,0,1,0,3.40733Z" transform="translate(-107.97485 -128.04234)" fill="#3f3d56"/>
    <path d="M978.68914,427.63285H607.45022a6.9608,6.9608,0,0,1-6.87479-7.028V254.05517a6.96084,6.96084,0,0,1,6.87479-7.02805H978.68914a6.96086,6.96086,0,0,1,6.87473,7.02805V420.60485A6.96083,6.96083,0,0,1,978.68914,427.63285Z" transform="translate(-107.97485 -128.04234)" fill="#295dcf"/>
    <path class="text-line" d="M683.05311,305.07921a4.77255,4.77255,0,0,0,0,9.54279h220.0332a4.77274,4.77274,0,0,0,0-9.54276Z" transform="translate(-107.97485 -128.04234)" fill="#fff"/>
    <path class="text-line" d="M683.05311,332.72625a4.77274,4.77274,0,0,0,0,9.54277h220.0332a4.77274,4.77274,0,0,0,0-9.54277Z" transform="translate(-107.97485 -128.04234)" fill="#fff"/>
    <path class="text-line" d="M683.05311,360.03806a4.77254,4.77254,0,0,0,0,9.54277H777.734a4.77254,4.77254,0,0,0,0-9.54277H683.05311Z" transform="translate(-107.97485 -128.04234)" fill="#fff"/>
    <ellipse cx="871.39778" cy="288.90934" rx="28.00421" ry="28.62831" fill="#3f3d56"/>
    <polygon class="check" points="869.063 301.568 860.175 289.885 865.344 285.775 869.552 291.306 883.769 275.965 888.524 280.569 869.063 301.568" fill="#fff"/>
</svg>